<svg fill="none" height="80" viewBox="0 0 80 80" width="80" xmlns="http://www.w3.org/2000/svg"><path d="m55.2553 80h-30.5106c-15.82882 0-24.7447-9.084-24.7447-24.7447v-30.5106c0-15.66067 8.91588-24.7447 24.7447-24.7447h30.5106c16.1614 0 24.7447 8.75146 24.7447 24.7447v30.5106c0 15.9932-8.5833 24.7447-24.7447 24.7447z" fill="#fff"/><g fill="#263238"><path d="m51.3959 54.5041c-1.4968 0-2.8306-.4646-3.9346-1.3745-1.319-1.0713-2.3675-2.6685-2.4045-4.5461-.0186-.9483.9781-.9483.9781-.9483s1.619-.0192 2.4045-.0192c.7854.0192 1.0151 1.1518 1.0522 1.436.3038 2.5456 1.6931 3.6552 2.7602 4.162.6409.3034.4816 1.2517-.8559 1.294z"/><path d="m37.9549 41.5687c-1.319-.1613-3.2752-.2995-4.5386-.622-2.0488-.5222-1.9932-2.4304-1.9043-3.0524.2482-1.8661.9077-3.5939 1.9229-5.1988 1.2633-1.9659 3.0788-3.6937 5.4129-5.0989 4.3792-2.6301 10.5034-4.0968 17.2316-4.0968 4.9313 0 10.0774.6642 10.1293.6642.4631.0614.8003.5222.7817 1.0444-.0185.5221-.3742.9215-.8373.9637-.7484-.0192-1.4783-.0192-2.1711-.0192-6.8541 0-11.7335.9637-15.3643 3.0524-3.579 2.0465-6.0724 5.1796-7.7619 9.8178-.1778.4031-.7669 2.7913-2.9009 2.5494z"/><path d="m43.9348 60.709c-3.4011.0729-6.6059-1.5205-9.0326-4.3003-2.0562-2.3537-3.2937-4.7265-3.5234-7.7713-.1408-1.9889.7077-2.6762 1.8599-2.5572.7965.0807 3.2751.2035 4.6941.5069 1.0634.2227 1.771.8332 1.9488 2.0887.9374 6.6962 5.0128 9.3301 7.4395 9.8984.4261.0998.6891.3839.6743.8946-.0185.4876-.289 1.1557-4.0569 1.2363z"/><path d="m34.246 66.6527c-2.4119.1037-4.7719-.3993-5.4462-.5222-2.838-.5221-5.2166-1.4244-7.2543-2.7644-4.8794-3.2022-7.8248-8.8579-8.1768-15.5541-.0889-1.5896-.2852-4.6267 3.3715-4.3963 1.5079.0845 3.9013.837 5.5871 1.34 2.0932.6067 3.1047 2.2807 3.1047 3.9356 0 9.4414 8.2509 15.6807 11.8521 15.6807.8595 0 1.0633.5299.9595 1.0367-.0815.4032-.3001 1.0866-3.9939 1.2479z"/><path d="m21.6602 38.9077c-1.4264-.2649-2.8194-.8754-4.1754-1.2248-4.194-1.0789-3.479-5.4637-3.0862-6.6655 3.8161-11.6415 15.9312-15.5348 25.7085-16.5754 9.2067-.979 18.8396-.2226 27.8129 2.3652.641.1766 2.4082.6182 2.0266 1.6933-.3816 1.075-1.4449.3263-11.2333.1036-3.227-.0729-6.4503.1383-9.6847.6528-5.55.8754-11.2556 2.6915-15.8423 6.5234-2.2119 1.8545-4.157 4.2196-5.4574 7.0148-.3408.7334-.6076 1.4667-.8373 2.2001-.2334.7756-1.1078 4.6689-5.2277 3.9163z"/><path d="m45.1311 41.1543c.7855-3.6438 4.2755-9.4185 15.0791-9.0192 2.4786.0807 1.3449 1.8315.1223 1.7931-6.1095-.2188-9.0067 3.8626-10.5257 8.0016-.4891 1.3324-1.6043 1.532-3.001 1.294-.9781-.1805-2.0415-.2995-1.6747-2.0695z"/></g></svg>