<svg viewBox="0 0 200 200" fill="none" xmlns="http://www.w3.org/2000/svg">
  <defs>
    <linearGradient id="bgGradient" x1="0%" y1="0%" x2="100%" y2="100%">
      <stop offset="0%" style="stop-color:#22d3ee"/>
      <stop offset="100%" style="stop-color:#8b5cf6"/>
    </linearGradient>
  </defs>
  <!-- Rounded square background -->
  <rect x="10" y="10" width="180" height="180" rx="40" fill="url(#bgGradient)"/>
  <!-- Back speech bubble (source) - pointing left -->
  <path d="M140 50 L140 100 Q140 110 130 110 L70 110 L50 130 L58 110 L50 110 Q40 110 40 100 L40 50 Q40 40 50 40 L130 40 Q140 40 140 50Z" fill="white" opacity="0.4"/>
  <!-- Front speech bubble (translated) - pointing right -->
  <path d="M60 90 L60 140 Q60 150 70 150 L130 150 L150 170 L142 150 L150 150 Q160 150 160 140 L160 90 Q160 80 150 80 L70 80 Q60 80 60 90Z" fill="white"/>
</svg>
